<svg width="16" height="16" viewBox="0 0 16 16" fill="none" xmlns="http://www.w3.org/2000/svg">
<rect width="16" height="16" fill="black"/>
<path d="M3.16126 10.5801V5.23674H6.47475V5.93075H3.96745V7.55879H6.23733V8.25019H3.96745V10.5801H3.16126ZM8.55455 10.6557C8.19624 10.6557 7.8875 10.5905 7.62834 10.4601C7.37091 10.3296 7.17262 10.1522 7.03347 9.92781C6.89432 9.7017 6.82475 9.44601 6.82475 9.16075C6.82475 8.94333 6.86997 8.75026 6.96042 8.58154C7.05087 8.41109 7.17697 8.25367 7.33873 8.1093C7.50049 7.96494 7.68747 7.8197 7.89968 7.67359L8.76066 7.06568C8.90677 6.97002 9.0207 6.86913 9.10245 6.76303C9.1842 6.65519 9.22508 6.52213 9.22508 6.36385C9.22508 6.23861 9.17116 6.1186 9.06331 6.0038C8.95547 5.889 8.81111 5.8316 8.63021 5.8316C8.50498 5.8316 8.39453 5.86204 8.29886 5.92292C8.20494 5.9838 8.13101 6.06207 8.07709 6.15773C8.02491 6.25166 7.99882 6.3508 7.99882 6.45516C7.99882 6.57692 8.03187 6.69955 8.09797 6.82304C8.1658 6.94654 8.25277 7.07438 8.35887 7.20657C8.46497 7.33702 8.57629 7.4727 8.69283 7.61358L11.174 10.5801H10.2922L8.23885 8.1667C8.06666 7.9632 7.90663 7.77187 7.75879 7.59271C7.61094 7.41182 7.49093 7.22918 7.39874 7.04481C7.30829 6.8587 7.26307 6.6578 7.26307 6.44212C7.26307 6.19687 7.31873 5.97945 7.43005 5.78986C7.54311 5.59853 7.70052 5.44894 7.90229 5.3411C8.10405 5.23326 8.34061 5.17934 8.61195 5.17934C8.88677 5.17934 9.12245 5.23326 9.319 5.3411C9.51729 5.4472 9.66948 5.58896 9.77559 5.76637C9.88343 5.94205 9.93735 6.13425 9.93735 6.34298C9.93735 6.59692 9.87386 6.8213 9.74689 7.01611C9.62165 7.20918 9.44859 7.3866 9.22769 7.54836L8.15536 8.3389C7.94664 8.49197 7.8014 8.64329 7.71965 8.79288C7.63964 8.94072 7.59964 9.05639 7.59964 9.13988C7.59964 9.29295 7.63877 9.4347 7.71704 9.56516C7.79705 9.69561 7.90837 9.79997 8.051 9.87824C8.19537 9.95651 8.36409 9.99565 8.55716 9.99565C8.75545 9.99565 8.94852 9.95304 9.13637 9.86781C9.32596 9.78084 9.49729 9.65647 9.65035 9.49471C9.80516 9.33295 9.92778 9.13901 10.0182 8.91289C10.1087 8.68678 10.1539 8.4337 10.1539 8.15366H10.8583C10.8583 8.49805 10.8192 8.7894 10.7409 9.02769C10.6627 9.26425 10.5679 9.45732 10.4565 9.6069C10.347 9.75475 10.2435 9.87042 10.1461 9.95391C10.1148 9.98174 10.0852 10.0096 10.0574 10.0374C10.0295 10.0652 9.99997 10.0931 9.96866 10.1209C9.78776 10.3035 9.5686 10.4383 9.31117 10.5253C9.05549 10.6123 8.80328 10.6557 8.55455 10.6557ZM13.2884 6.57257V7.19875H11.0237V6.57257H13.2884ZM11.6447 10.5801V6.10816C11.6447 5.85769 11.6995 5.64984 11.8091 5.4846C11.9187 5.31762 12.0639 5.19325 12.2448 5.1115C12.4257 5.02801 12.6222 4.98627 12.8344 4.98627C12.991 4.98627 13.1249 4.99931 13.2362 5.0254C13.3475 5.04975 13.4302 5.07237 13.4841 5.09324L13.3015 5.72463C13.2649 5.71419 13.218 5.70202 13.1606 5.6881C13.1032 5.67245 13.0336 5.66462 12.9518 5.66462C12.7622 5.66462 12.6266 5.71158 12.5448 5.80551C12.4648 5.89944 12.4248 6.03511 12.4248 6.21252V10.5801H11.6447Z" fill="white"/>
</svg>
